<?xml version="1.0" standalone="no"?>
<!DOCTYPE svg PUBLIC "-//W3C//DTD SVG 20010904//EN"
 "http://www.w3.org/TR/2001/REC-SVG-20010904/DTD/svg10.dtd">
<svg version="1.0" xmlns="http://www.w3.org/2000/svg"
 width="900.000000pt" height="520.000000pt" viewBox="0 0 900.000000 520.000000"
 preserveAspectRatio="xMidYMid meet">
<metadata>
Created by potrace 1.16, written by Peter Selinger 2001-2019
</metadata>
<g transform="translate(0.000000,520.000000) scale(0.100000,-0.100000)"
fill="#000000" stroke="none">
<path d="M6358 5186 c-43 -22 -212 -208 -342 -376 -258 -331 -415 -619 -472
-865 -26 -109 -26 -407 0 -545 28 -153 81 -355 152 -577 125 -392 144 -458
179 -598 77 -312 68 -497 -29 -600 -43 -45 -98 -49 -140 -10 -53 49 -69 105
-78 280 -18 353 -57 512 -163 661 -70 98 -194 181 -297 199 l-38 7 0 740 c0
806 2 774 -57 814 -22 15 -52 19 -140 22 l-113 4 0 90 c0 104 -14 136 -67 162
-30 14 -111 16 -742 16 -390 0 -723 -3 -741 -6 -17 -4 -47 -21 -66 -39 l-34
-32 0 -95 0 -95 -99 -5 c-77 -4 -106 -9 -132 -26 -70 -43 -64 119 -66 -1857
l-2 -1790 -168 -5 c-155 -5 -170 -7 -201 -28 -17 -13 -37 -32 -42 -42 -6 -11
-10 -103 -10 -213 0 -185 1 -196 23 -228 12 -19 38 -42 57 -51 33 -17 124 -18
1481 -18 l1446 0 33 23 c63 42 70 70 70 270 0 280 -6 287 -262 287 l-168 0 0
910 c0 501 4 910 8 910 13 0 70 -45 92 -72 73 -93 108 -237 120 -498 5 -108
15 -210 25 -245 24 -93 71 -180 127 -235 246 -242 612 -81 684 301 21 107 14
291 -16 438 -25 125 -90 349 -198 691 -77 242 -138 461 -144 523 -3 27 1 30
67 51 118 38 185 77 255 146 109 108 147 213 137 380 -7 140 -61 305 -143 441
-19 31 -34 62 -34 68 0 24 177 249 327 416 103 115 113 130 113 181 0 96 -108
163 -192 120z m-372 -1098 c49 -147 43 -234 -19 -305 -29 -33 -135 -93 -164
-93 -17 0 -16 48 2 151 17 98 38 162 91 278 44 97 47 96 90 -31z m-1239 -75
c20 -9 44 -30 54 -47 18 -29 19 -60 19 -561 0 -501 -1 -532 -19 -561 -40 -66
-12 -64 -806 -64 -794 0 -766 -2 -806 64 -18 29 -19 60 -19 561 0 500 1 532
19 561 40 66 10 64 804 64 651 0 722 -2 754 -17z"/>
</g>
</svg>
